<?xml version="1.0" encoding="UTF-8"?>
<svg xmlns="http://www.w3.org/2000/svg" width="291" height="68" viewBox="0 0 291 68" fill="none">
  <path d="M83.0684 27.4957C82.6473 27.4957 82.2392 27.3492 81.9137 27.0812C70.5737 17.7315 57.6972 14.7486 43.6389 18.2136C37.2479 19.7905 31.1963 22.5205 25.7798 26.2701C25.395 26.5098 24.9349 26.597 24.4894 26.5146C24.0439 26.4321 23.6451 26.186 23.371 25.8243C23.0969 25.4626 22.9671 25.0114 23.0071 24.5589C23.0471 24.1063 23.254 23.685 23.5872 23.3773C29.3866 19.3089 35.8886 16.3556 42.7628 14.6675C53.2312 12.0856 68.9248 11.6621 84.2186 24.2785C84.5013 24.5187 84.7042 24.8397 84.8001 25.1986C84.896 25.5575 84.8804 25.9372 84.7554 26.2869C84.6303 26.6367 84.4018 26.9398 84.1004 27.1559C83.7989 27.3719 83.4389 27.4904 83.0684 27.4957Z" fill="#9CC23C"></path>
  <path d="M25.2047 33.6237C25.2047 33.6237 37.1647 26.0809 51.3397 25.0175C65.5147 23.9541 70.2098 27.2344 70.2098 27.2344L61.6284 38.0485C61.6284 38.0485 52.2473 31.3302 43.6659 31.4339C43.6659 31.4339 62.2574 38.8415 68.8889 52.9224L51.8564 51.4895L40.5478 62.9615V42.2345C40.5478 42.2345 49.7762 42.3651 56.9288 46.6682C56.9288 46.6637 54.1972 39.7517 25.2047 33.6237Z" fill="#62CCF0"></path>
  <path d="M61.7407 40.5718C61.7407 40.5718 67.9948 36.6156 75.4125 36.0659C82.8303 35.5162 85.2969 37.2284 85.2969 37.2284L80.804 42.8878C80.804 42.8878 75.8798 39.3732 71.3869 39.4273C71.3869 39.4273 81.114 43.3024 84.5825 50.6695L75.6821 49.917L69.765 55.9188V45.0732C69.765 45.0732 74.5948 45.1453 78.3329 47.3937C78.3329 47.3937 76.9087 43.78 61.7407 40.5718Z" fill="#21A1DC"></path>
  <path d="M59.3261 15.0921C59.8606 10.8907 57.6958 7.1524 54.4911 6.74239C51.2864 6.33237 48.2552 9.40592 47.7207 13.6073C47.1863 17.8088 49.351 21.5471 52.5557 21.9571C55.7605 22.3671 58.7917 19.2936 59.3261 15.0921Z" fill="#62CCF0"></path>
  <path d="M79.5617 31.4196C79.839 29.2399 78.7169 27.3006 77.0555 27.088C75.394 26.8755 73.8224 28.4701 73.5451 30.6498C73.2679 32.8296 74.39 34.7689 76.0514 34.9814C77.7128 35.194 79.2845 33.5993 79.5617 31.4196Z" fill="#21A1DC"></path>
  <path d="M104.14 20.8495C103.682 20.0475 102.77 19.6465 101.404 19.6465H100.424V18.6687H121.258C124.025 18.6687 125.409 19.9754 125.409 22.5888V26.2611H124.403C124.403 22.5092 122.368 20.6318 118.297 20.6288H109.217V33.3624H122.408V35.3224H109.217V49.0609H117.753C120 49.0609 121.758 48.6523 123.028 47.8353C124.298 47.0182 125.312 45.6244 126.07 43.6538L127.049 43.8971L125.337 48.5517C124.738 50.1828 123.518 50.9984 121.676 50.9984H104.823V24.5444C104.823 22.8817 104.594 21.6471 104.14 20.8495Z" fill="#9CC23C"></path>
  <path d="M131.493 20.8495C131.04 20.0475 130.128 19.6465 128.756 19.6465H127.215V18.6687H132.158C133.078 18.6144 134 18.7684 134.853 19.1193C135.172 19.2983 135.451 19.5404 135.673 19.8309C135.896 20.1214 136.057 20.4541 136.147 20.809C136.454 22.0245 136.586 23.2779 136.538 24.5308V50.9984H132.176V24.5444C132.176 22.8817 131.951 21.6471 131.493 20.8495Z" fill="#9CC23C"></path>
  <path d="M156.99 20.8495C156.537 20.0475 155.627 19.6465 154.258 19.6465H138.407V18.6687H157.677C158.598 18.6136 159.519 18.7676 160.373 19.1193C160.698 19.297 160.983 19.54 161.21 19.833C161.437 20.126 161.602 20.4629 161.694 20.8225C162.001 22.038 162.133 23.2914 162.085 24.5444V33.3624H176.74V18.6687H181.134V45.1227C181.134 46.7839 181.364 48.017 181.822 48.8221C182.28 49.6271 183.191 50.0266 184.553 50.0206H189.496V50.9984H181.121C180.2 51.0535 179.279 50.8994 178.425 50.5478C178.107 50.3687 177.828 50.1266 177.605 49.8362C177.383 49.5457 177.222 49.213 177.131 48.8581C176.824 47.6426 176.692 46.3892 176.74 45.1362V35.3224H162.071V50.9984H157.677V24.5444C157.677 22.8817 157.448 21.6471 156.99 20.8495Z" fill="#9CC23C"></path>
  <path d="M190.596 30.1362C190.144 29.3401 189.234 28.9406 187.865 28.9376H182.954V27.9733H191.284C192.205 27.918 193.126 28.072 193.979 28.4239C194.303 28.6041 194.586 28.8491 194.811 29.1436C195.036 29.4382 195.198 29.7761 195.287 30.1362C195.594 31.3516 195.726 32.605 195.678 33.858V50.9984H191.284V33.8761C191.284 32.1999 191.055 30.9532 190.596 30.1362ZM191.207 24.0893C190.676 23.4787 190.389 22.6919 190.403 21.8814C190.387 21.5846 190.433 21.2876 190.538 21.0098C190.643 20.7319 190.805 20.4793 191.014 20.2683C191.234 20.0659 191.492 19.9095 191.773 19.8081C192.053 19.7068 192.352 19.6625 192.65 19.678C193.02 19.678 193.386 19.7619 193.72 19.9234C194.053 20.0849 194.346 20.3198 194.577 20.6107C195.112 21.2179 195.4 22.0041 195.386 22.8141C195.401 23.1115 195.355 23.4088 195.25 23.6873C195.144 23.9658 194.983 24.2193 194.775 24.4317C194.555 24.6333 194.297 24.7889 194.016 24.8895C193.735 24.9901 193.437 25.0336 193.139 25.0175C192.77 25.0193 192.405 24.9385 192.071 24.7811C191.737 24.6236 191.442 24.3935 191.207 24.1073V24.0893Z" fill="#9CC23C"></path>
  <path d="M202.467 20.8495C202.014 20.0475 201.102 19.6465 199.73 19.6465H197.219V18.6687H203.149C204.07 18.6139 204.992 18.7679 205.845 19.1193C206.164 19.2983 206.443 19.5405 206.665 19.8309C206.888 20.1214 207.049 20.4541 207.139 20.809C207.446 22.0245 207.578 23.2779 207.53 24.5308V50.9984H203.131V24.5444C203.149 22.8817 202.925 21.6471 202.467 20.8495Z" fill="#9CC23C"></path>
  <path d="M217.073 50.8272C215.973 50.3661 215.02 49.6138 214.314 48.6508C213.498 47.4757 213.093 46.0621 213.164 44.6316C213.164 42.1503 214.313 40.387 216.61 39.3417C218.907 38.2963 221.912 37.7811 225.623 37.7962H227.087C227.087 34.597 226.647 32.4086 225.767 31.2311C225.322 30.6487 224.743 30.1838 224.079 29.8768C223.415 29.5698 222.687 29.4299 221.957 29.4693C220.717 29.4081 219.488 29.7323 218.439 30.3975C217.561 31.0193 216.943 32.0977 216.583 33.6327H214.386C214.367 32.7544 214.431 31.8762 214.579 31.0103C214.735 30.3199 215.093 29.6921 215.608 29.2079C216.207 28.6072 217.176 28.1746 218.515 27.9103C219.971 27.6243 221.452 27.4854 222.936 27.4957C225.575 27.4957 227.658 28.2061 229.186 29.627C230.713 31.0479 231.478 33.7709 231.481 37.7962V50.9984H229.042L227.33 48.795H227.087C226.389 49.6295 225.502 50.2845 224.5 50.7055C223.155 51.2674 221.706 51.5347 220.249 51.4895C219.157 51.4796 218.078 51.2545 217.073 50.8272ZM225.133 48.5021C225.91 47.9135 226.573 47.1864 227.087 46.3573V39.7337H225.623C223.209 39.7337 221.304 40.1843 219.908 41.0855C218.512 41.9866 217.811 43.1702 217.805 44.6361C217.805 46.1411 218.254 47.2901 219.153 48.0921C220.062 48.8955 221.24 49.3237 222.451 49.2907C223.406 49.3234 224.347 49.0469 225.133 48.5021Z" fill="#9CC23C"></path>
  <path d="M240.566 50.8272C239.467 50.3661 238.513 49.6138 237.807 48.6508C236.995 47.4742 236.592 46.0613 236.662 44.6316C236.662 42.1504 237.809 40.3871 240.103 39.3417C242.398 38.2963 245.402 37.7812 249.116 37.7962H250.581C250.581 34.597 250.142 32.4086 249.264 31.2311C248.82 30.6487 248.241 30.1838 247.577 29.8768C246.913 29.5698 246.184 29.4299 245.454 29.4693C244.214 29.4069 242.985 29.7312 241.936 30.3975C241.056 31.0193 240.437 32.0977 240.081 33.6327H237.879C237.861 32.7543 237.927 31.8761 238.077 31.0103C238.233 30.321 238.589 29.6936 239.101 29.208C239.69 28.6222 240.656 28.1896 242.008 27.9103C243.465 27.6247 244.946 27.4859 246.429 27.4957C249.068 27.4957 251.153 28.2062 252.683 29.627C254.214 31.0479 254.979 33.7709 254.979 37.7962V50.9984H252.535L250.828 48.795H250.581C249.884 49.6318 248.996 50.2873 247.993 50.7055C246.648 51.2678 245.199 51.5351 243.743 51.4895C242.651 51.4791 241.572 51.2541 240.566 50.8272ZM248.626 48.5022C249.406 47.916 250.069 47.1885 250.581 46.3574V39.7337H249.116C246.703 39.7337 244.803 40.1843 243.401 41.0855C241.999 41.9866 241.298 43.1672 241.298 44.6361C241.298 46.105 241.748 47.2901 242.646 48.0921C243.555 48.8951 244.733 49.3233 245.944 49.2907C246.9 49.3247 247.84 49.0481 248.626 48.5022Z" fill="#9CC23C"></path>
  <path d="M261.278 20.8495C260.826 20.0475 259.914 19.6465 258.542 19.6465H209.381V18.6687H261.948C262.869 18.6144 263.79 18.7684 264.643 19.1193C264.962 19.2983 265.241 19.5404 265.463 19.8309C265.686 20.1214 265.847 20.4541 265.937 20.809C266.245 22.0245 266.376 23.2779 266.328 24.5308V50.9984H261.93V24.5444C261.961 22.8817 261.737 21.6471 261.278 20.8495Z" fill="#9CC23C"></path>
</svg>
